<svg id="그룹_486" data-name="그룹 486" xmlns="http://www.w3.org/2000/svg" xmlns:xlink="http://www.w3.org/1999/xlink" width="154.531" height="28.549" viewBox="0 0 154.531 28.549">
  <defs>
    <clipPath id="clip-path">
      <rect id="사각형_5" data-name="사각형 5" width="154.531" height="28.548" fill="none"/>
    </clipPath>
  </defs>
  <g id="그룹_1" data-name="그룹 1" transform="translate(0 0)" clip-path="url(#clip-path)">
    <path id="패스_1" data-name="패스 1" d="M305.077,21.154a2.936,2.936,0,0,1-2.935,2.936h-1.966V6.925h1.966a2.935,2.935,0,0,1,2.935,2.934ZM302.4,1.529h-7.32a.586.586,0,0,0-.587.587V28.9a.586.586,0,0,0,.587.587h7.32a8.365,8.365,0,0,0,8.364-8.364V9.893A8.365,8.365,0,0,0,302.4,1.529" transform="translate(-185.159 -0.961)"/>
    <path id="패스_2" data-name="패스 2" d="M352.812,29.455h-4.494a.587.587,0,0,1-.587-.587V2.069a.587.587,0,0,1,.587-.587h4.494a.587.587,0,0,1,.587.587v26.8a.587.587,0,0,1-.587.587" transform="translate(-218.634 -0.932)"/>
    <path id="패스_3" data-name="패스 3" d="M378.079,15.128V7.854a2.468,2.468,0,0,1,4.935.016v7.258Zm10.6-6.979a8.136,8.136,0,1,0-16.272-.024V27.937a.587.587,0,0,0,.587.587h4.5a.587.587,0,0,0,.587-.587V20.519h4.935v7.418a.587.587,0,0,0,.587.587H388.1a.587.587,0,0,0,.587-.587V8.148Z" transform="translate(-234.151 0)"/>
    <path id="패스_4" data-name="패스 4" d="M253.478,9.941a2.935,2.935,0,0,1-2.935,2.935h-1.966V6.985h1.966a2.935,2.935,0,0,1,2.935,2.934Zm0,11.282a2.935,2.935,0,0,1-2.935,2.935h-1.966V18.267h1.966a2.935,2.935,0,0,1,2.935,2.936Zm5.668-11.3a8.324,8.324,0,0,0-8.325-8.325H243.5a.587.587,0,0,0-.588.588v26.78a.587.587,0,0,0,.588.588h7.324a8.324,8.324,0,0,0,8.325-8.325V21.2a8.283,8.283,0,0,0-2.2-5.629,8.284,8.284,0,0,0,2.2-5.629Z" transform="translate(-152.728 -1.002)"/>
    <path id="패스_5" data-name="패스 5" d="M54.068,5.612H49.9a.544.544,0,0,0-.544.544V31a.544.544,0,0,0,.544.544h4.166A.544.544,0,0,0,54.613,31V6.156a.544.544,0,0,0-.544-.544" transform="translate(-31.034 -3.529)" fill="#570ae3"/>
    <path id="패스_6" data-name="패스 6" d="M126.3,5.612h-4.166a.544.544,0,0,0-.545.544V31a.544.544,0,0,0,.545.544H126.3a.544.544,0,0,0,.544-.544V6.156a.544.544,0,0,0-.544-.544" transform="translate(-76.452 -3.529)" fill="#570ae3"/>
    <path id="패스_7" data-name="패스 7" d="M86.778,5.612H79.991a7.754,7.754,0,0,0-7.754,7.754V23.774a7.754,7.754,0,0,0,7.754,7.754h6.786a.544.544,0,0,0,.544-.544V27.075a.544.544,0,0,0-.544-.544H80.213a2.721,2.721,0,0,1-2.721-2.721V13.33a2.721,2.721,0,0,1,2.721-2.721h6.565a.544.544,0,0,0,.544-.544V6.156a.544.544,0,0,0-.544-.544" transform="translate(-45.419 -3.529)" fill="#570ae3"/>
    <path id="패스_8" data-name="패스 8" d="M203.119,16.079h-4.031V6.155a.544.544,0,0,0-.544-.544h-4.166a.544.544,0,0,0-.544.544V31a.544.544,0,0,0,.544.544h4.166a.544.544,0,0,0,.544-.544V21.076h4.031a.544.544,0,0,0,.544-.544V16.623a.544.544,0,0,0-.544-.544" transform="translate(-121.872 -3.528)" fill="#570ae3"/>
    <path id="패스_9" data-name="패스 9" d="M154.305,23.89a2.288,2.288,0,0,1-4.577,0V11.465a2.288,2.288,0,0,1,4.577,0ZM152.017,4.179a7.543,7.543,0,0,0-7.543,7.543V23.633a7.543,7.543,0,1,0,15.086,0V11.722a7.543,7.543,0,0,0-7.543-7.543" transform="translate(-90.837 -2.628)" fill="#570ae3"/>
    <path id="패스_10" data-name="패스 10" d="M9.83,24.819a2.288,2.288,0,0,1-4.575.013V18.089H9.83Zm4.71-19.148H10.374a.544.544,0,0,0-.544.544v6.876H5.255V6.215a.544.544,0,0,0-.544-.544H.544A.545.545,0,0,0,0,6.215V24.582a7.542,7.542,0,0,0,15.085-.022V6.215a.544.544,0,0,0-.544-.544" transform="translate(0 -3.566)" fill="#570ae3"/>
  </g>
</svg>
